<?xml version="1.0" encoding="UTF-8" standalone="no"?>
<!DOCTYPE svg PUBLIC "-//W3C//DTD SVG 1.1//EN"
 "http://www.w3.org/Graphics/SVG/1.1/DTD/svg11.dtd">
<!-- Generated by graphviz version 3.0.0 (20220226.1711)
 -->
<!-- Title: dependencies Pages: 1 -->
<svg width="3435pt" height="247pt"
 viewBox="0.00 0.00 3435.00 246.80" xmlns="http://www.w3.org/2000/svg" xmlns:xlink="http://www.w3.org/1999/xlink">
<g id="graph0" class="graph" transform="scale(1 1) rotate(0) translate(4 242.8)">
<title>dependencies</title>
<polygon fill="white" stroke="transparent" points="-4,4 -4,-242.8 3431,-242.8 3431,4 -4,4"/>
<text text-anchor="middle" x="1713.5" y="-8.2" font-family="sans-serif" font-size="14.00">dependencies</text>
<g id="clust1" class="cluster">
<title>cluster_AppModule</title>
<polygon fill="none" stroke="black" stroke-dasharray="1,5" points="8,-32.8 8,-230.8 3419,-230.8 3419,-32.8 8,-32.8"/>
</g>
<g id="clust25" class="cluster">
<title>cluster_AppModule_imports</title>
<polygon fill="none" stroke="black" points="3267,-40.8 3267,-92.8 3411,-92.8 3411,-40.8 3267,-40.8"/>
</g>
<g id="clust27" class="cluster">
<title>cluster_AppModule_bootstrap</title>
<polygon fill="none" stroke="black" points="1583,-170.8 1583,-222.8 1707,-222.8 1707,-170.8 1583,-170.8"/>
</g>
<g id="clust2" class="cluster">
<title>cluster_AppModule_declarations</title>
<polygon fill="none" stroke="black" points="16,-40.8 16,-92.8 3259,-92.8 3259,-40.8 16,-40.8"/>
</g>
<!-- AppComponent -->
<g id="node1" class="node">
<title>AppComponent</title>
<polygon fill="#ffffb3" stroke="black" points="3250.94,-84.8 3145.06,-84.8 3145.06,-48.8 3250.94,-48.8 3250.94,-84.8"/>
<text text-anchor="middle" x="3198" y="-62.6" font-family="Times,serif" font-size="14.00">AppComponent</text>
</g>
<!-- AppModule -->
<g id="node23" class="node">
<title>AppModule</title>
<polygon fill="#8dd3c7" stroke="black" points="1686.66,-149.8 1683.66,-153.8 1662.66,-153.8 1659.66,-149.8 1603.34,-149.8 1603.34,-113.8 1686.66,-113.8 1686.66,-149.8"/>
<text text-anchor="middle" x="1645" y="-127.6" font-family="Times,serif" font-size="14.00">AppModule</text>
</g>
<!-- AppComponent&#45;&gt;AppModule -->
<g id="edge1" class="edge">
<title>AppComponent&#45;&gt;AppModule</title>
<path fill="none" stroke="black" d="M3198,-85.05C3198,-107.82 3198,-143.8 3198,-143.8 3198,-143.8 1696.94,-143.8 1696.94,-143.8"/>
<polygon fill="black" stroke="black" points="1696.94,-140.3 1686.94,-143.8 1696.94,-147.3 1696.94,-140.3"/>
</g>
<!-- BoxComponent -->
<g id="node2" class="node">
<title>BoxComponent</title>
<polygon fill="#ffffb3" stroke="black" points="3127.17,-84.8 3022.83,-84.8 3022.83,-48.8 3127.17,-48.8 3127.17,-84.8"/>
<text text-anchor="middle" x="3075" y="-62.6" font-family="Times,serif" font-size="14.00">BoxComponent</text>
</g>
<!-- BoxComponent&#45;&gt;AppModule -->
<g id="edge2" class="edge">
<title>BoxComponent&#45;&gt;AppModule</title>
<path fill="none" stroke="black" d="M3075,-85.09C3075,-107.01 3075,-140.8 3075,-140.8 3075,-140.8 1697.02,-140.8 1697.02,-140.8"/>
<polygon fill="black" stroke="black" points="1697.02,-137.3 1687.02,-140.8 1697.02,-144.3 1697.02,-137.3"/>
</g>
<!-- ButtonComponent -->
<g id="node3" class="node">
<title>ButtonComponent</title>
<polygon fill="#ffffb3" stroke="black" points="3004.95,-84.8 2885.05,-84.8 2885.05,-48.8 3004.95,-48.8 3004.95,-84.8"/>
<text text-anchor="middle" x="2945" y="-62.6" font-family="Times,serif" font-size="14.00">ButtonComponent</text>
</g>
<!-- ButtonComponent&#45;&gt;AppModule -->
<g id="edge3" class="edge">
<title>ButtonComponent&#45;&gt;AppModule</title>
<path fill="none" stroke="black" d="M2945,-85.08C2945,-106.12 2945,-137.8 2945,-137.8 2945,-137.8 1696.78,-137.8 1696.78,-137.8"/>
<polygon fill="black" stroke="black" points="1696.78,-134.3 1686.78,-137.8 1696.78,-141.3 1696.78,-134.3"/>
</g>
<!-- ButtonSettingComponent -->
<g id="node4" class="node">
<title>ButtonSettingComponent</title>
<polygon fill="#ffffb3" stroke="black" points="2867.62,-84.8 2708.38,-84.8 2708.38,-48.8 2867.62,-48.8 2867.62,-84.8"/>
<text text-anchor="middle" x="2788" y="-62.6" font-family="Times,serif" font-size="14.00">ButtonSettingComponent</text>
</g>
<!-- ButtonSettingComponent&#45;&gt;AppModule -->
<g id="edge4" class="edge">
<title>ButtonSettingComponent&#45;&gt;AppModule</title>
<path fill="none" stroke="black" d="M2788,-85.02C2788,-105.17 2788,-134.8 2788,-134.8 2788,-134.8 1696.69,-134.8 1696.69,-134.8"/>
<polygon fill="black" stroke="black" points="1696.69,-131.3 1686.69,-134.8 1696.69,-138.3 1696.69,-131.3"/>
</g>
<!-- DataDemoComponent -->
<g id="node5" class="node">
<title>DataDemoComponent</title>
<polygon fill="#ffffb3" stroke="black" points="2689.97,-84.8 2548.03,-84.8 2548.03,-48.8 2689.97,-48.8 2689.97,-84.8"/>
<text text-anchor="middle" x="2619" y="-62.6" font-family="Times,serif" font-size="14.00">DataDemoComponent</text>
</g>
<!-- DataDemoComponent&#45;&gt;AppModule -->
<g id="edge5" class="edge">
<title>DataDemoComponent&#45;&gt;AppModule</title>
<path fill="none" stroke="black" d="M2619,-84.91C2619,-104.14 2619,-131.8 2619,-131.8 2619,-131.8 1696.85,-131.8 1696.85,-131.8"/>
<polygon fill="black" stroke="black" points="1696.85,-128.3 1686.85,-131.8 1696.85,-135.3 1696.85,-128.3"/>
</g>
<!-- DemoAreaComponent -->
<g id="node6" class="node">
<title>DemoAreaComponent</title>
<polygon fill="#ffffb3" stroke="black" points="2530.25,-84.8 2387.75,-84.8 2387.75,-48.8 2530.25,-48.8 2530.25,-84.8"/>
<text text-anchor="middle" x="2459" y="-62.6" font-family="Times,serif" font-size="14.00">DemoAreaComponent</text>
</g>
<!-- DemoAreaComponent&#45;&gt;AppModule -->
<g id="edge6" class="edge">
<title>DemoAreaComponent&#45;&gt;AppModule</title>
<path fill="none" stroke="black" d="M2459,-85.07C2459,-103.36 2459,-128.8 2459,-128.8 2459,-128.8 1696.77,-128.8 1696.77,-128.8"/>
<polygon fill="black" stroke="black" points="1696.77,-125.3 1686.77,-128.8 1696.77,-132.3 1696.77,-125.3"/>
</g>
<!-- DemoBlockComponent -->
<g id="node7" class="node">
<title>DemoBlockComponent</title>
<polygon fill="#ffffb3" stroke="black" points="2369.49,-84.8 2220.51,-84.8 2220.51,-48.8 2369.49,-48.8 2369.49,-84.8"/>
<text text-anchor="middle" x="2295" y="-62.6" font-family="Times,serif" font-size="14.00">DemoBlockComponent</text>
</g>
<!-- DemoBlockComponent&#45;&gt;AppModule -->
<g id="edge7" class="edge">
<title>DemoBlockComponent&#45;&gt;AppModule</title>
<path fill="none" stroke="black" d="M2295,-84.82C2295,-102.17 2295,-125.8 2295,-125.8 2295,-125.8 1697.15,-125.8 1697.15,-125.8"/>
<polygon fill="black" stroke="black" points="1697.15,-122.3 1687.15,-125.8 1697.15,-129.3 1697.15,-122.3"/>
</g>
<!-- DemoDataViewComponent -->
<g id="node8" class="node">
<title>DemoDataViewComponent</title>
<polygon fill="#ffffb3" stroke="black" points="2202.3,-84.8 2029.7,-84.8 2029.7,-48.8 2202.3,-48.8 2202.3,-84.8"/>
<text text-anchor="middle" x="2116" y="-62.6" font-family="Times,serif" font-size="14.00">DemoDataViewComponent</text>
</g>
<!-- DemoDataViewComponent&#45;&gt;AppModule -->
<g id="edge8" class="edge">
<title>DemoDataViewComponent&#45;&gt;AppModule</title>
<path fill="none" stroke="black" d="M2116,-84.83C2116,-101.2 2116,-122.8 2116,-122.8 2116,-122.8 1696.8,-122.8 1696.8,-122.8"/>
<polygon fill="black" stroke="black" points="1696.8,-119.3 1686.8,-122.8 1696.8,-126.3 1696.8,-119.3"/>
</g>
<!-- DemoLayoutComponent -->
<g id="node9" class="node">
<title>DemoLayoutComponent</title>
<polygon fill="#ffffb3" stroke="black" points="2011.7,-84.8 1856.3,-84.8 1856.3,-48.8 2011.7,-48.8 2011.7,-84.8"/>
<text text-anchor="middle" x="1934" y="-62.6" font-family="Times,serif" font-size="14.00">DemoLayoutComponent</text>
</g>
<!-- DemoLayoutComponent&#45;&gt;AppModule -->
<g id="edge9" class="edge">
<title>DemoLayoutComponent&#45;&gt;AppModule</title>
<path fill="none" stroke="black" d="M1934,-85.04C1934,-100.37 1934,-119.8 1934,-119.8 1934,-119.8 1696.71,-119.8 1696.71,-119.8"/>
<polygon fill="black" stroke="black" points="1696.71,-116.3 1686.71,-119.8 1696.71,-123.3 1696.71,-116.3"/>
</g>
<!-- EditorComponent -->
<g id="node10" class="node">
<title>EditorComponent</title>
<polygon fill="#ffffb3" stroke="black" points="1838.32,-84.8 1721.68,-84.8 1721.68,-48.8 1838.32,-48.8 1838.32,-84.8"/>
<text text-anchor="middle" x="1780" y="-62.6" font-family="Times,serif" font-size="14.00">EditorComponent</text>
</g>
<!-- EditorComponent&#45;&gt;AppModule -->
<g id="edge10" class="edge">
<title>EditorComponent&#45;&gt;AppModule</title>
<path fill="none" stroke="black" d="M1780,-84.85C1780,-99.17 1780,-116.8 1780,-116.8 1780,-116.8 1696.97,-116.8 1696.97,-116.8"/>
<polygon fill="black" stroke="black" points="1696.97,-113.3 1686.97,-116.8 1696.97,-120.3 1696.97,-113.3"/>
</g>
<!-- FrameComponent -->
<g id="node11" class="node">
<title>FrameComponent</title>
<polygon fill="#ffffb3" stroke="black" points="1703.6,-84.8 1586.4,-84.8 1586.4,-48.8 1703.6,-48.8 1703.6,-84.8"/>
<text text-anchor="middle" x="1645" y="-62.6" font-family="Times,serif" font-size="14.00">FrameComponent</text>
</g>
<!-- FrameComponent&#45;&gt;AppModule -->
<g id="edge11" class="edge">
<title>FrameComponent&#45;&gt;AppModule</title>
<path fill="none" stroke="black" d="M1645,-84.91C1645,-84.91 1645,-103.79 1645,-103.79"/>
<polygon fill="black" stroke="black" points="1641.5,-103.79 1645,-113.79 1648.5,-103.79 1641.5,-103.79"/>
</g>
<!-- FrameDirective -->
<g id="node12" class="node">
<title>FrameDirective</title>
<polygon fill="#ffffb3" stroke="black" points="1568.85,-84.8 1465.15,-84.8 1465.15,-48.8 1568.85,-48.8 1568.85,-84.8"/>
<text text-anchor="middle" x="1517" y="-62.6" font-family="Times,serif" font-size="14.00">FrameDirective</text>
</g>
<!-- FrameDirective&#45;&gt;AppModule -->
<g id="edge12" class="edge">
<title>FrameDirective&#45;&gt;AppModule</title>
<path fill="none" stroke="black" d="M1517,-84.85C1517,-99.17 1517,-116.8 1517,-116.8 1517,-116.8 1593.09,-116.8 1593.09,-116.8"/>
<polygon fill="black" stroke="black" points="1593.09,-120.3 1603.09,-116.8 1593.09,-113.3 1593.09,-120.3"/>
</g>
<!-- RowComponent -->
<g id="node13" class="node">
<title>RowComponent</title>
<polygon fill="#ffffb3" stroke="black" points="1446.78,-84.8 1339.22,-84.8 1339.22,-48.8 1446.78,-48.8 1446.78,-84.8"/>
<text text-anchor="middle" x="1393" y="-62.6" font-family="Times,serif" font-size="14.00">RowComponent</text>
</g>
<!-- RowComponent&#45;&gt;AppModule -->
<g id="edge13" class="edge">
<title>RowComponent&#45;&gt;AppModule</title>
<path fill="none" stroke="black" d="M1393,-85.04C1393,-100.37 1393,-119.8 1393,-119.8 1393,-119.8 1593.1,-119.8 1593.1,-119.8"/>
<polygon fill="black" stroke="black" points="1593.1,-123.3 1603.1,-119.8 1593.1,-116.3 1593.1,-123.3"/>
</g>
<!-- SettingComponent -->
<g id="node14" class="node">
<title>SettingComponent</title>
<polygon fill="#ffffb3" stroke="black" points="1321.5,-84.8 1200.5,-84.8 1200.5,-48.8 1321.5,-48.8 1321.5,-84.8"/>
<text text-anchor="middle" x="1261" y="-62.6" font-family="Times,serif" font-size="14.00">SettingComponent</text>
</g>
<!-- SettingComponent&#45;&gt;AppModule -->
<g id="edge14" class="edge">
<title>SettingComponent&#45;&gt;AppModule</title>
<path fill="none" stroke="black" d="M1261,-84.83C1261,-101.2 1261,-122.8 1261,-122.8 1261,-122.8 1593.17,-122.8 1593.17,-122.8"/>
<polygon fill="black" stroke="black" points="1593.17,-126.3 1603.17,-122.8 1593.17,-119.3 1593.17,-126.3"/>
</g>
<!-- TableComponent -->
<g id="node15" class="node">
<title>TableComponent</title>
<polygon fill="#ffffb3" stroke="black" points="1182.7,-84.8 1069.3,-84.8 1069.3,-48.8 1182.7,-48.8 1182.7,-84.8"/>
<text text-anchor="middle" x="1126" y="-62.6" font-family="Times,serif" font-size="14.00">TableComponent</text>
</g>
<!-- TableComponent&#45;&gt;AppModule -->
<g id="edge15" class="edge">
<title>TableComponent&#45;&gt;AppModule</title>
<path fill="none" stroke="black" d="M1126,-84.82C1126,-102.17 1126,-125.8 1126,-125.8 1126,-125.8 1592.97,-125.8 1592.97,-125.8"/>
<polygon fill="black" stroke="black" points="1592.97,-129.3 1602.97,-125.8 1592.97,-122.3 1592.97,-129.3"/>
</g>
<!-- TableSettingComponent -->
<g id="node16" class="node">
<title>TableSettingComponent</title>
<polygon fill="#ffffb3" stroke="black" points="1051.37,-84.8 898.63,-84.8 898.63,-48.8 1051.37,-48.8 1051.37,-84.8"/>
<text text-anchor="middle" x="975" y="-62.6" font-family="Times,serif" font-size="14.00">TableSettingComponent</text>
</g>
<!-- TableSettingComponent&#45;&gt;AppModule -->
<g id="edge16" class="edge">
<title>TableSettingComponent&#45;&gt;AppModule</title>
<path fill="none" stroke="black" d="M975,-85.07C975,-103.36 975,-128.8 975,-128.8 975,-128.8 1593.09,-128.8 1593.09,-128.8"/>
<polygon fill="black" stroke="black" points="1593.09,-132.3 1603.09,-128.8 1593.09,-125.3 1593.09,-132.3"/>
</g>
<!-- ViewComponent -->
<g id="node17" class="node">
<title>ViewComponent</title>
<polygon fill="#ffffb3" stroke="black" points="880.66,-84.8 769.34,-84.8 769.34,-48.8 880.66,-48.8 880.66,-84.8"/>
<text text-anchor="middle" x="825" y="-62.6" font-family="Times,serif" font-size="14.00">ViewComponent</text>
</g>
<!-- ViewComponent&#45;&gt;AppModule -->
<g id="edge17" class="edge">
<title>ViewComponent&#45;&gt;AppModule</title>
<path fill="none" stroke="black" d="M825,-84.91C825,-104.14 825,-131.8 825,-131.8 825,-131.8 1593.21,-131.8 1593.21,-131.8"/>
<polygon fill="black" stroke="black" points="1593.21,-135.3 1603.21,-131.8 1593.21,-128.3 1593.21,-135.3"/>
</g>
<!-- WidgetComponent -->
<g id="node18" class="node">
<title>WidgetComponent</title>
<polygon fill="#ffffb3" stroke="black" points="751.04,-84.8 628.96,-84.8 628.96,-48.8 751.04,-48.8 751.04,-84.8"/>
<text text-anchor="middle" x="690" y="-62.6" font-family="Times,serif" font-size="14.00">WidgetComponent</text>
</g>
<!-- WidgetComponent&#45;&gt;AppModule -->
<g id="edge18" class="edge">
<title>WidgetComponent&#45;&gt;AppModule</title>
<path fill="none" stroke="black" d="M690,-85.02C690,-105.17 690,-134.8 690,-134.8 690,-134.8 1593.04,-134.8 1593.04,-134.8"/>
<polygon fill="black" stroke="black" points="1593.04,-138.3 1603.04,-134.8 1593.04,-131.3 1593.04,-138.3"/>
</g>
<!-- YunAreaComponent -->
<g id="node19" class="node">
<title>YunAreaComponent</title>
<polygon fill="#ffffb3" stroke="black" points="610.14,-84.8 477.86,-84.8 477.86,-48.8 610.14,-48.8 610.14,-84.8"/>
<text text-anchor="middle" x="544" y="-62.6" font-family="Times,serif" font-size="14.00">YunAreaComponent</text>
</g>
<!-- YunAreaComponent&#45;&gt;AppModule -->
<g id="edge19" class="edge">
<title>YunAreaComponent&#45;&gt;AppModule</title>
<path fill="none" stroke="black" d="M544,-85.08C544,-106.12 544,-137.8 544,-137.8 544,-137.8 1593.18,-137.8 1593.18,-137.8"/>
<polygon fill="black" stroke="black" points="1593.18,-141.3 1603.18,-137.8 1593.18,-134.3 1593.18,-141.3"/>
</g>
<!-- YunBlockComponent -->
<g id="node20" class="node">
<title>YunBlockComponent</title>
<polygon fill="#ffffb3" stroke="black" points="459.38,-84.8 320.62,-84.8 320.62,-48.8 459.38,-48.8 459.38,-84.8"/>
<text text-anchor="middle" x="390" y="-62.6" font-family="Times,serif" font-size="14.00">YunBlockComponent</text>
</g>
<!-- YunBlockComponent&#45;&gt;AppModule -->
<g id="edge20" class="edge">
<title>YunBlockComponent&#45;&gt;AppModule</title>
<path fill="none" stroke="black" d="M390,-85.09C390,-107.01 390,-140.8 390,-140.8 390,-140.8 1593.24,-140.8 1593.24,-140.8"/>
<polygon fill="black" stroke="black" points="1593.24,-144.3 1603.24,-140.8 1593.24,-137.3 1593.24,-144.3"/>
</g>
<!-- YunBoxComponent -->
<g id="node21" class="node">
<title>YunBoxComponent</title>
<polygon fill="#ffffb3" stroke="black" points="302.28,-84.8 173.72,-84.8 173.72,-48.8 302.28,-48.8 302.28,-84.8"/>
<text text-anchor="middle" x="238" y="-62.6" font-family="Times,serif" font-size="14.00">YunBoxComponent</text>
</g>
<!-- YunBoxComponent&#45;&gt;AppModule -->
<g id="edge21" class="edge">
<title>YunBoxComponent&#45;&gt;AppModule</title>
<path fill="none" stroke="black" d="M238,-85.05C238,-107.82 238,-143.8 238,-143.8 238,-143.8 1593.27,-143.8 1593.27,-143.8"/>
<polygon fill="black" stroke="black" points="1593.27,-147.3 1603.27,-143.8 1593.27,-140.3 1593.27,-147.3"/>
</g>
<!-- YunRowComponent -->
<g id="node22" class="node">
<title>YunRowComponent</title>
<polygon fill="#ffffb3" stroke="black" points="155.89,-84.8 24.11,-84.8 24.11,-48.8 155.89,-48.8 155.89,-84.8"/>
<text text-anchor="middle" x="90" y="-62.6" font-family="Times,serif" font-size="14.00">YunRowComponent</text>
</g>
<!-- YunRowComponent&#45;&gt;AppModule -->
<g id="edge22" class="edge">
<title>YunRowComponent&#45;&gt;AppModule</title>
<path fill="none" stroke="black" d="M90,-84.95C90,-108.56 90,-146.8 90,-146.8 90,-146.8 1593.01,-146.8 1593.01,-146.8"/>
<polygon fill="black" stroke="black" points="1593.01,-150.3 1603.01,-146.8 1593.01,-143.3 1593.01,-150.3"/>
</g>
<!-- AppComponent  -->
<g id="node25" class="node">
<title>AppComponent </title>
<polygon fill="#80b1d3" stroke="black" points="1699.44,-214.8 1590.56,-214.8 1590.56,-178.8 1699.44,-178.8 1699.44,-214.8"/>
<text text-anchor="middle" x="1645" y="-192.6" font-family="Times,serif" font-size="14.00">AppComponent </text>
</g>
<!-- AppModule&#45;&gt;AppComponent  -->
<g id="edge24" class="edge">
<title>AppModule&#45;&gt;AppComponent </title>
<path fill="none" stroke="black" stroke-dasharray="1,5" d="M1645,-149.91C1645,-149.91 1645,-168.79 1645,-168.79"/>
<polygon fill="black" stroke="black" points="1641.5,-168.79 1645,-178.79 1648.5,-168.79 1641.5,-168.79"/>
</g>
<!-- AppRoutingModule -->
<g id="node24" class="node">
<title>AppRoutingModule</title>
<polygon fill="#8dd3c7" stroke="black" points="3403.28,-84.8 3400.28,-88.8 3379.28,-88.8 3376.28,-84.8 3274.72,-84.8 3274.72,-48.8 3403.28,-48.8 3403.28,-84.8"/>
<text text-anchor="middle" x="3339" y="-62.6" font-family="Times,serif" font-size="14.00">AppRoutingModule</text>
</g>
<!-- AppRoutingModule&#45;&gt;AppModule -->
<g id="edge23" class="edge">
<title>AppRoutingModule&#45;&gt;AppModule</title>
<path fill="none" stroke="black" d="M3339,-84.95C3339,-108.56 3339,-146.8 3339,-146.8 3339,-146.8 1696.87,-146.8 1696.87,-146.8"/>
<polygon fill="black" stroke="black" points="1696.87,-143.3 1686.87,-146.8 1696.87,-150.3 1696.87,-143.3"/>
</g>
</g>
</svg>
