<?xml version="1.0" encoding="UTF-8" standalone="no"?>
<!DOCTYPE svg PUBLIC "-//W3C//DTD SVG 1.1//EN"
 "http://www.w3.org/Graphics/SVG/1.1/DTD/svg11.dtd">
<!-- Generated by graphviz version 3.0.0 (20220226.1711)
 -->
<!-- Title: dependencies Pages: 1 -->
<svg width="3435pt" height="247pt"
 viewBox="0.00 0.00 3435.00 246.80" xmlns="http://www.w3.org/2000/svg" xmlns:xlink="http://www.w3.org/1999/xlink">
<g id="graph0" class="graph" transform="scale(1 1) rotate(0) translate(4 242.8)">
<title>dependencies</title>
<polygon fill="white" stroke="transparent" points="-4,4 -4,-242.8 3431,-242.8 3431,4 -4,4"/>
<text text-anchor="middle" x="1713.5" y="-8.2" font-family="sans-serif" font-size="14.00">dependencies</text>
<g id="clust1" class="cluster">
<title>cluster_AppModule</title>
<polygon fill="none" stroke="black" stroke-dasharray="1,5" points="8,-32.8 8,-230.8 3419,-230.8 3419,-32.8 8,-32.8"/>
</g>
<g id="clust2" class="cluster">
<title>cluster_AppModule_declarations</title>
<polygon fill="none" stroke="black" points="168,-40.8 168,-92.8 3411,-92.8 3411,-40.8 168,-40.8"/>
</g>
<g id="clust25" class="cluster">
<title>cluster_AppModule_imports</title>
<polygon fill="none" stroke="black" points="16,-40.8 16,-92.8 160,-92.8 160,-40.8 16,-40.8"/>
</g>
<g id="clust27" class="cluster">
<title>cluster_AppModule_bootstrap</title>
<polygon fill="none" stroke="black" points="1607,-170.8 1607,-222.8 1731,-222.8 1731,-170.8 1607,-170.8"/>
</g>
<!-- AppComponent -->
<g id="node1" class="node">
<title>AppComponent</title>
<polygon fill="#ffffb3" stroke="black" points="3402.94,-84.8 3297.06,-84.8 3297.06,-48.8 3402.94,-48.8 3402.94,-84.8"/>
<text text-anchor="middle" x="3350" y="-62.6" font-family="Times,serif" font-size="14.00">AppComponent</text>
</g>
<!-- AppModule -->
<g id="node23" class="node">
<title>AppModule</title>
<polygon fill="#8dd3c7" stroke="black" points="1710.66,-149.8 1707.66,-153.8 1686.66,-153.8 1683.66,-149.8 1627.34,-149.8 1627.34,-113.8 1710.66,-113.8 1710.66,-149.8"/>
<text text-anchor="middle" x="1669" y="-127.6" font-family="Times,serif" font-size="14.00">AppModule</text>
</g>
<!-- AppComponent&#45;&gt;AppModule -->
<g id="edge1" class="edge">
<title>AppComponent&#45;&gt;AppModule</title>
<path fill="none" stroke="black" d="M3350,-84.95C3350,-108.56 3350,-146.8 3350,-146.8 3350,-146.8 1720.97,-146.8 1720.97,-146.8"/>
<polygon fill="black" stroke="black" points="1720.97,-143.3 1710.97,-146.8 1720.97,-150.3 1720.97,-143.3"/>
</g>
<!-- BoxComponent -->
<g id="node2" class="node">
<title>BoxComponent</title>
<polygon fill="#ffffb3" stroke="black" points="3279.17,-84.8 3174.83,-84.8 3174.83,-48.8 3279.17,-48.8 3279.17,-84.8"/>
<text text-anchor="middle" x="3227" y="-62.6" font-family="Times,serif" font-size="14.00">BoxComponent</text>
</g>
<!-- BoxComponent&#45;&gt;AppModule -->
<g id="edge2" class="edge">
<title>BoxComponent&#45;&gt;AppModule</title>
<path fill="none" stroke="black" d="M3227,-85.05C3227,-107.82 3227,-143.8 3227,-143.8 3227,-143.8 1720.67,-143.8 1720.67,-143.8"/>
<polygon fill="black" stroke="black" points="1720.67,-140.3 1710.67,-143.8 1720.67,-147.3 1720.67,-140.3"/>
</g>
<!-- ButtonComponent -->
<g id="node3" class="node">
<title>ButtonComponent</title>
<polygon fill="#ffffb3" stroke="black" points="3156.95,-84.8 3037.05,-84.8 3037.05,-48.8 3156.95,-48.8 3156.95,-84.8"/>
<text text-anchor="middle" x="3097" y="-62.6" font-family="Times,serif" font-size="14.00">ButtonComponent</text>
</g>
<!-- ButtonComponent&#45;&gt;AppModule -->
<g id="edge3" class="edge">
<title>ButtonComponent&#45;&gt;AppModule</title>
<path fill="none" stroke="black" d="M3097,-85.09C3097,-107.01 3097,-140.8 3097,-140.8 3097,-140.8 1720.96,-140.8 1720.96,-140.8"/>
<polygon fill="black" stroke="black" points="1720.96,-137.3 1710.96,-140.8 1720.96,-144.3 1720.96,-137.3"/>
</g>
<!-- ButtonSettingComponent -->
<g id="node4" class="node">
<title>ButtonSettingComponent</title>
<polygon fill="#ffffb3" stroke="black" points="3019.62,-84.8 2860.38,-84.8 2860.38,-48.8 3019.62,-48.8 3019.62,-84.8"/>
<text text-anchor="middle" x="2940" y="-62.6" font-family="Times,serif" font-size="14.00">ButtonSettingComponent</text>
</g>
<!-- ButtonSettingComponent&#45;&gt;AppModule -->
<g id="edge4" class="edge">
<title>ButtonSettingComponent&#45;&gt;AppModule</title>
<path fill="none" stroke="black" d="M2940,-85.08C2940,-106.12 2940,-137.8 2940,-137.8 2940,-137.8 1720.93,-137.8 1720.93,-137.8"/>
<polygon fill="black" stroke="black" points="1720.93,-134.3 1710.93,-137.8 1720.93,-141.3 1720.93,-134.3"/>
</g>
<!-- DataDemoComponent -->
<g id="node5" class="node">
<title>DataDemoComponent</title>
<polygon fill="#ffffb3" stroke="black" points="2841.97,-84.8 2700.03,-84.8 2700.03,-48.8 2841.97,-48.8 2841.97,-84.8"/>
<text text-anchor="middle" x="2771" y="-62.6" font-family="Times,serif" font-size="14.00">DataDemoComponent</text>
</g>
<!-- DataDemoComponent&#45;&gt;AppModule -->
<g id="edge5" class="edge">
<title>DataDemoComponent&#45;&gt;AppModule</title>
<path fill="none" stroke="black" d="M2771,-85.02C2771,-105.17 2771,-134.8 2771,-134.8 2771,-134.8 1720.85,-134.8 1720.85,-134.8"/>
<polygon fill="black" stroke="black" points="1720.85,-131.3 1710.85,-134.8 1720.85,-138.3 1720.85,-131.3"/>
</g>
<!-- DemoAreaComponent -->
<g id="node6" class="node">
<title>DemoAreaComponent</title>
<polygon fill="#ffffb3" stroke="black" points="2682.25,-84.8 2539.75,-84.8 2539.75,-48.8 2682.25,-48.8 2682.25,-84.8"/>
<text text-anchor="middle" x="2611" y="-62.6" font-family="Times,serif" font-size="14.00">DemoAreaComponent</text>
</g>
<!-- DemoAreaComponent&#45;&gt;AppModule -->
<g id="edge6" class="edge">
<title>DemoAreaComponent&#45;&gt;AppModule</title>
<path fill="none" stroke="black" d="M2611,-84.91C2611,-104.14 2611,-131.8 2611,-131.8 2611,-131.8 1720.69,-131.8 1720.69,-131.8"/>
<polygon fill="black" stroke="black" points="1720.69,-128.3 1710.69,-131.8 1720.69,-135.3 1720.69,-128.3"/>
</g>
<!-- DemoBlockComponent -->
<g id="node7" class="node">
<title>DemoBlockComponent</title>
<polygon fill="#ffffb3" stroke="black" points="2521.49,-84.8 2372.51,-84.8 2372.51,-48.8 2521.49,-48.8 2521.49,-84.8"/>
<text text-anchor="middle" x="2447" y="-62.6" font-family="Times,serif" font-size="14.00">DemoBlockComponent</text>
</g>
<!-- DemoBlockComponent&#45;&gt;AppModule -->
<g id="edge7" class="edge">
<title>DemoBlockComponent&#45;&gt;AppModule</title>
<path fill="none" stroke="black" d="M2447,-85.07C2447,-103.36 2447,-128.8 2447,-128.8 2447,-128.8 1720.83,-128.8 1720.83,-128.8"/>
<polygon fill="black" stroke="black" points="1720.83,-125.3 1710.83,-128.8 1720.83,-132.3 1720.83,-125.3"/>
</g>
<!-- DemoDataViewComponent -->
<g id="node8" class="node">
<title>DemoDataViewComponent</title>
<polygon fill="#ffffb3" stroke="black" points="2354.3,-84.8 2181.7,-84.8 2181.7,-48.8 2354.3,-48.8 2354.3,-84.8"/>
<text text-anchor="middle" x="2268" y="-62.6" font-family="Times,serif" font-size="14.00">DemoDataViewComponent</text>
</g>
<!-- DemoDataViewComponent&#45;&gt;AppModule -->
<g id="edge8" class="edge">
<title>DemoDataViewComponent&#45;&gt;AppModule</title>
<path fill="none" stroke="black" d="M2268,-84.82C2268,-102.17 2268,-125.8 2268,-125.8 2268,-125.8 1721.12,-125.8 1721.12,-125.8"/>
<polygon fill="black" stroke="black" points="1721.12,-122.3 1711.12,-125.8 1721.12,-129.3 1721.12,-122.3"/>
</g>
<!-- DemoLayoutComponent -->
<g id="node9" class="node">
<title>DemoLayoutComponent</title>
<polygon fill="#ffffb3" stroke="black" points="2163.7,-84.8 2008.3,-84.8 2008.3,-48.8 2163.7,-48.8 2163.7,-84.8"/>
<text text-anchor="middle" x="2086" y="-62.6" font-family="Times,serif" font-size="14.00">DemoLayoutComponent</text>
</g>
<!-- DemoLayoutComponent&#45;&gt;AppModule -->
<g id="edge9" class="edge">
<title>DemoLayoutComponent&#45;&gt;AppModule</title>
<path fill="none" stroke="black" d="M2086,-84.83C2086,-101.2 2086,-122.8 2086,-122.8 2086,-122.8 1720.89,-122.8 1720.89,-122.8"/>
<polygon fill="black" stroke="black" points="1720.89,-119.3 1710.89,-122.8 1720.89,-126.3 1720.89,-119.3"/>
</g>
<!-- EditorComponent -->
<g id="node10" class="node">
<title>EditorComponent</title>
<polygon fill="#ffffb3" stroke="black" points="1990.32,-84.8 1873.68,-84.8 1873.68,-48.8 1990.32,-48.8 1990.32,-84.8"/>
<text text-anchor="middle" x="1932" y="-62.6" font-family="Times,serif" font-size="14.00">EditorComponent</text>
</g>
<!-- EditorComponent&#45;&gt;AppModule -->
<g id="edge10" class="edge">
<title>EditorComponent&#45;&gt;AppModule</title>
<path fill="none" stroke="black" d="M1932,-85.04C1932,-100.37 1932,-119.8 1932,-119.8 1932,-119.8 1720.67,-119.8 1720.67,-119.8"/>
<polygon fill="black" stroke="black" points="1720.67,-116.3 1710.67,-119.8 1720.67,-123.3 1720.67,-116.3"/>
</g>
<!-- FrameComponent -->
<g id="node11" class="node">
<title>FrameComponent</title>
<polygon fill="#ffffb3" stroke="black" points="1855.6,-84.8 1738.4,-84.8 1738.4,-48.8 1855.6,-48.8 1855.6,-84.8"/>
<text text-anchor="middle" x="1797" y="-62.6" font-family="Times,serif" font-size="14.00">FrameComponent</text>
</g>
<!-- FrameComponent&#45;&gt;AppModule -->
<g id="edge11" class="edge">
<title>FrameComponent&#45;&gt;AppModule</title>
<path fill="none" stroke="black" d="M1797,-84.85C1797,-99.17 1797,-116.8 1797,-116.8 1797,-116.8 1720.91,-116.8 1720.91,-116.8"/>
<polygon fill="black" stroke="black" points="1720.91,-113.3 1710.91,-116.8 1720.91,-120.3 1720.91,-113.3"/>
</g>
<!-- FrameDirective -->
<g id="node12" class="node">
<title>FrameDirective</title>
<polygon fill="#ffffb3" stroke="black" points="1720.85,-84.8 1617.15,-84.8 1617.15,-48.8 1720.85,-48.8 1720.85,-84.8"/>
<text text-anchor="middle" x="1669" y="-62.6" font-family="Times,serif" font-size="14.00">FrameDirective</text>
</g>
<!-- FrameDirective&#45;&gt;AppModule -->
<g id="edge12" class="edge">
<title>FrameDirective&#45;&gt;AppModule</title>
<path fill="none" stroke="black" d="M1669,-84.91C1669,-84.91 1669,-103.79 1669,-103.79"/>
<polygon fill="black" stroke="black" points="1665.5,-103.79 1669,-113.79 1672.5,-103.79 1665.5,-103.79"/>
</g>
<!-- RowComponent -->
<g id="node13" class="node">
<title>RowComponent</title>
<polygon fill="#ffffb3" stroke="black" points="1598.78,-84.8 1491.22,-84.8 1491.22,-48.8 1598.78,-48.8 1598.78,-84.8"/>
<text text-anchor="middle" x="1545" y="-62.6" font-family="Times,serif" font-size="14.00">RowComponent</text>
</g>
<!-- RowComponent&#45;&gt;AppModule -->
<g id="edge13" class="edge">
<title>RowComponent&#45;&gt;AppModule</title>
<path fill="none" stroke="black" d="M1545,-84.85C1545,-99.17 1545,-116.8 1545,-116.8 1545,-116.8 1617.02,-116.8 1617.02,-116.8"/>
<polygon fill="black" stroke="black" points="1617.02,-120.3 1627.02,-116.8 1617.02,-113.3 1617.02,-120.3"/>
</g>
<!-- SettingComponent -->
<g id="node14" class="node">
<title>SettingComponent</title>
<polygon fill="#ffffb3" stroke="black" points="1473.5,-84.8 1352.5,-84.8 1352.5,-48.8 1473.5,-48.8 1473.5,-84.8"/>
<text text-anchor="middle" x="1413" y="-62.6" font-family="Times,serif" font-size="14.00">SettingComponent</text>
</g>
<!-- SettingComponent&#45;&gt;AppModule -->
<g id="edge14" class="edge">
<title>SettingComponent&#45;&gt;AppModule</title>
<path fill="none" stroke="black" d="M1413,-85.04C1413,-100.37 1413,-119.8 1413,-119.8 1413,-119.8 1617.3,-119.8 1617.3,-119.8"/>
<polygon fill="black" stroke="black" points="1617.3,-123.3 1627.3,-119.8 1617.3,-116.3 1617.3,-123.3"/>
</g>
<!-- TableComponent -->
<g id="node15" class="node">
<title>TableComponent</title>
<polygon fill="#ffffb3" stroke="black" points="1334.7,-84.8 1221.3,-84.8 1221.3,-48.8 1334.7,-48.8 1334.7,-84.8"/>
<text text-anchor="middle" x="1278" y="-62.6" font-family="Times,serif" font-size="14.00">TableComponent</text>
</g>
<!-- TableComponent&#45;&gt;AppModule -->
<g id="edge15" class="edge">
<title>TableComponent&#45;&gt;AppModule</title>
<path fill="none" stroke="black" d="M1278,-84.83C1278,-101.2 1278,-122.8 1278,-122.8 1278,-122.8 1617.16,-122.8 1617.16,-122.8"/>
<polygon fill="black" stroke="black" points="1617.16,-126.3 1627.16,-122.8 1617.16,-119.3 1617.16,-126.3"/>
</g>
<!-- TableSettingComponent -->
<g id="node16" class="node">
<title>TableSettingComponent</title>
<polygon fill="#ffffb3" stroke="black" points="1203.37,-84.8 1050.63,-84.8 1050.63,-48.8 1203.37,-48.8 1203.37,-84.8"/>
<text text-anchor="middle" x="1127" y="-62.6" font-family="Times,serif" font-size="14.00">TableSettingComponent</text>
</g>
<!-- TableSettingComponent&#45;&gt;AppModule -->
<g id="edge16" class="edge">
<title>TableSettingComponent&#45;&gt;AppModule</title>
<path fill="none" stroke="black" d="M1127,-84.82C1127,-102.17 1127,-125.8 1127,-125.8 1127,-125.8 1616.92,-125.8 1616.92,-125.8"/>
<polygon fill="black" stroke="black" points="1616.92,-129.3 1626.92,-125.8 1616.92,-122.3 1616.92,-129.3"/>
</g>
<!-- ViewComponent -->
<g id="node17" class="node">
<title>ViewComponent</title>
<polygon fill="#ffffb3" stroke="black" points="1032.66,-84.8 921.34,-84.8 921.34,-48.8 1032.66,-48.8 1032.66,-84.8"/>
<text text-anchor="middle" x="977" y="-62.6" font-family="Times,serif" font-size="14.00">ViewComponent</text>
</g>
<!-- ViewComponent&#45;&gt;AppModule -->
<g id="edge17" class="edge">
<title>ViewComponent&#45;&gt;AppModule</title>
<path fill="none" stroke="black" d="M977,-85.07C977,-103.36 977,-128.8 977,-128.8 977,-128.8 1617.27,-128.8 1617.27,-128.8"/>
<polygon fill="black" stroke="black" points="1617.27,-132.3 1627.27,-128.8 1617.27,-125.3 1617.27,-132.3"/>
</g>
<!-- WidgetComponent -->
<g id="node18" class="node">
<title>WidgetComponent</title>
<polygon fill="#ffffb3" stroke="black" points="903.04,-84.8 780.96,-84.8 780.96,-48.8 903.04,-48.8 903.04,-84.8"/>
<text text-anchor="middle" x="842" y="-62.6" font-family="Times,serif" font-size="14.00">WidgetComponent</text>
</g>
<!-- WidgetComponent&#45;&gt;AppModule -->
<g id="edge18" class="edge">
<title>WidgetComponent&#45;&gt;AppModule</title>
<path fill="none" stroke="black" d="M842,-84.91C842,-104.14 842,-131.8 842,-131.8 842,-131.8 1617.14,-131.8 1617.14,-131.8"/>
<polygon fill="black" stroke="black" points="1617.14,-135.3 1627.14,-131.8 1617.14,-128.3 1617.14,-135.3"/>
</g>
<!-- YunAreaComponent -->
<g id="node19" class="node">
<title>YunAreaComponent</title>
<polygon fill="#ffffb3" stroke="black" points="762.14,-84.8 629.86,-84.8 629.86,-48.8 762.14,-48.8 762.14,-84.8"/>
<text text-anchor="middle" x="696" y="-62.6" font-family="Times,serif" font-size="14.00">YunAreaComponent</text>
</g>
<!-- YunAreaComponent&#45;&gt;AppModule -->
<g id="edge19" class="edge">
<title>YunAreaComponent&#45;&gt;AppModule</title>
<path fill="none" stroke="black" d="M696,-85.02C696,-105.17 696,-134.8 696,-134.8 696,-134.8 1617.19,-134.8 1617.19,-134.8"/>
<polygon fill="black" stroke="black" points="1617.19,-138.3 1627.19,-134.8 1617.19,-131.3 1617.19,-138.3"/>
</g>
<!-- YunBlockComponent -->
<g id="node20" class="node">
<title>YunBlockComponent</title>
<polygon fill="#ffffb3" stroke="black" points="611.38,-84.8 472.62,-84.8 472.62,-48.8 611.38,-48.8 611.38,-84.8"/>
<text text-anchor="middle" x="542" y="-62.6" font-family="Times,serif" font-size="14.00">YunBlockComponent</text>
</g>
<!-- YunBlockComponent&#45;&gt;AppModule -->
<g id="edge20" class="edge">
<title>YunBlockComponent&#45;&gt;AppModule</title>
<path fill="none" stroke="black" d="M542,-85.08C542,-106.12 542,-137.8 542,-137.8 542,-137.8 1617.22,-137.8 1617.22,-137.8"/>
<polygon fill="black" stroke="black" points="1617.22,-141.3 1627.22,-137.8 1617.22,-134.3 1617.22,-141.3"/>
</g>
<!-- YunBoxComponent -->
<g id="node21" class="node">
<title>YunBoxComponent</title>
<polygon fill="#ffffb3" stroke="black" points="454.28,-84.8 325.72,-84.8 325.72,-48.8 454.28,-48.8 454.28,-84.8"/>
<text text-anchor="middle" x="390" y="-62.6" font-family="Times,serif" font-size="14.00">YunBoxComponent</text>
</g>
<!-- YunBoxComponent&#45;&gt;AppModule -->
<g id="edge21" class="edge">
<title>YunBoxComponent&#45;&gt;AppModule</title>
<path fill="none" stroke="black" d="M390,-85.09C390,-107.01 390,-140.8 390,-140.8 390,-140.8 1617.17,-140.8 1617.17,-140.8"/>
<polygon fill="black" stroke="black" points="1617.17,-144.3 1627.17,-140.8 1617.17,-137.3 1617.17,-144.3"/>
</g>
<!-- YunRowComponent -->
<g id="node22" class="node">
<title>YunRowComponent</title>
<polygon fill="#ffffb3" stroke="black" points="307.89,-84.8 176.11,-84.8 176.11,-48.8 307.89,-48.8 307.89,-84.8"/>
<text text-anchor="middle" x="242" y="-62.6" font-family="Times,serif" font-size="14.00">YunRowComponent</text>
</g>
<!-- YunRowComponent&#45;&gt;AppModule -->
<g id="edge22" class="edge">
<title>YunRowComponent&#45;&gt;AppModule</title>
<path fill="none" stroke="black" d="M242,-85.05C242,-107.82 242,-143.8 242,-143.8 242,-143.8 1617.07,-143.8 1617.07,-143.8"/>
<polygon fill="black" stroke="black" points="1617.07,-147.3 1627.07,-143.8 1617.07,-140.3 1617.07,-147.3"/>
</g>
<!-- AppComponent  -->
<g id="node25" class="node">
<title>AppComponent </title>
<polygon fill="#80b1d3" stroke="black" points="1723.44,-214.8 1614.56,-214.8 1614.56,-178.8 1723.44,-178.8 1723.44,-214.8"/>
<text text-anchor="middle" x="1669" y="-192.6" font-family="Times,serif" font-size="14.00">AppComponent </text>
</g>
<!-- AppModule&#45;&gt;AppComponent  -->
<g id="edge24" class="edge">
<title>AppModule&#45;&gt;AppComponent </title>
<path fill="none" stroke="black" stroke-dasharray="1,5" d="M1669,-149.91C1669,-149.91 1669,-168.79 1669,-168.79"/>
<polygon fill="black" stroke="black" points="1665.5,-168.79 1669,-178.79 1672.5,-168.79 1665.5,-168.79"/>
</g>
<!-- AppRoutingModule -->
<g id="node24" class="node">
<title>AppRoutingModule</title>
<polygon fill="#8dd3c7" stroke="black" points="152.28,-84.8 149.28,-88.8 128.28,-88.8 125.28,-84.8 23.72,-84.8 23.72,-48.8 152.28,-48.8 152.28,-84.8"/>
<text text-anchor="middle" x="88" y="-62.6" font-family="Times,serif" font-size="14.00">AppRoutingModule</text>
</g>
<!-- AppRoutingModule&#45;&gt;AppModule -->
<g id="edge23" class="edge">
<title>AppRoutingModule&#45;&gt;AppModule</title>
<path fill="none" stroke="black" d="M88,-84.95C88,-108.56 88,-146.8 88,-146.8 88,-146.8 1617.12,-146.8 1617.12,-146.8"/>
<polygon fill="black" stroke="black" points="1617.12,-150.3 1627.12,-146.8 1617.12,-143.3 1617.12,-150.3"/>
</g>
</g>
</svg>
